<svg xmlns="http://www.w3.org/2000/svg" width="430" height="210" viewBox="0 0 430 210" fill="none">
  <path d="M484.069 187.886L471.473 193.624C419.407 217.342 358.996 213.866 309.994 184.334L302.666 179.918C266 157.821 222.46 150.059 180.417 158.126L144.217 165.071C88.2084 175.817 31.4198 150.628 1.79307 101.897L-100.11 -1.19462L-103.345 -131.735C-103.425 -134.982 -99.6039 -136.771 -97.1617 -134.63L-91.7224 -129.862C-89.7115 -128.099 -86.7565 -130.441 -88.0139 -132.802C-89.1914 -135.012 -86.6286 -137.326 -84.5497 -135.929L-70.9962 -126.825C-67.7982 -124.677 -63.4435 -125.774 -61.6446 -129.181L-35.7349 -178.247C-27.6597 -193.539 -13.0151 -204.282 3.99645 -207.391L115.639 -227.8L270.574 -242.724C286.221 -244.231 301.504 -248.359 315.782 -254.936C405.543 -296.277 508.758 -234.268 514.408 -135.606L521.519 -11.4306L484.069 187.886Z" fill="url(#paint0_radial_59_41)"/>
  <defs>
    <radialGradient id="paint0_radial_59_41" cx="0" cy="0" r="1" gradientUnits="userSpaceOnUse" gradientTransform="translate(213 -13.3466) rotate(-95.5022) scale(182.662 979.388)">
      <stop offset="0.0420928" stop-color="#3F5134"/>
      <stop offset="0.0996207" stop-color="#384931"/>
      <stop offset="0.209443" stop-color="#3D4F35"/>
      <stop offset="0.489952" stop-color="#4C6244"/>
    </radialGradient>
  </defs>
</svg>